 
http://www.imdb.com/title/tt1559547/



Plot:Ethan longs to escape his small Southern town. He meets a mysterious new girl, Lena. Together, they uncover dark secrets about their respective families, their history and their town. 



Director:
 Richard LaGravenese

Writers:
 Richard LaGravenese (screenplay), Kami Garcia (novel)

Stars:
 Alice Englert, Viola Davis, Emma Thompson

Genres:
 Drama | Fantasy | Romance 

Country:
USA 





Format                                   : AVI
Format/Info                              : Audio Video Interleave
File size                                : 700 MiB
Duration                                 : 1h 57mn
Overall bit rate                         : 835 Kbps
Writing application                      : Lavf54.59.103

Video
ID                                       : 0
Format                                   : MPEG-4 Visual
Format profile                           : Simple@L3
Format settings, BVOP                    : No
Format settings, QPel                    : No
Format settings, GMC                     : No warppoints
Format settings, Matrix                  : Default (H.263)
Codec ID                                 : XVID
Codec ID/Hint                            : XviD
Duration                                 : 1h 57mn
Bit rate                                 : 760 Kbps
Width                                    : 640 pixels
Height                                   : 272 pixels
Display aspect ratio                     : 2.35:1
Frame rate                               : 25.000 fps
Color space                              : YUV
Chroma subsampling                       : 4:2:0
Bit depth                                : 8 bits
Scan type                                : Progressive
Compression mode                         : Lossy
Bits/(Pixel*Frame)                       : 0.175
Stream size                              : 637 MiB (91%)
Writing library                          : XviD 64

Audio
ID                                       : 1
Format                                   : AC-3
Format/Info                              : Audio Coding 3
Mode extension                           : CM (complete main)
Format settings, Endianness              : Big
Codec ID                                 : 2000
Duration                                 : 1h 57mn
Bit rate mode                            : Constant
Bit rate                                 : 64.0 Kbps
Channel(s)                               : 2 channels
Channel positions                        : Front: L R
Sampling rate                            : 48.0 KHz
Bit depth                                : 16 bits
Compression mode                         : Lossy
Stream size                              : 53.6 MiB (8%)
Alignment                                : Aligned on interleaves
Interleave, duration                     : 32 ms (0.80 video frame)



 
http://bayimg.com/OaKBIAAEJ 
http://bayimg.com/oakbjaaeJ 
http://bayimg.com/OAKBKaaEj 
http://bayimg.com/oAkbLAaEj 
http://bayimg.com/OakbmAaEJ
